<?xml version="1.0" encoding="utf-8"?>
<!-- Generator: Adobe Illustrator 23.0.1, SVG Export Plug-In . SVG Version: 6.00 Build 0)  -->
<svg version="1.1" xmlns="http://www.w3.org/2000/svg" xmlns:xlink="http://www.w3.org/1999/xlink" x="0px" y="0px"
	 viewBox="0 0 512 512" style="enable-background:new 0 0 512 512;" xml:space="preserve">
<style type="text/css">
	.st0{fill:#333333;}
	.st1{fill:none;stroke:#333333;stroke-width:32;stroke-linecap:round;stroke-linejoin:round;stroke-miterlimit:10;}
</style>
<g id="Layer_1">
</g>
<g id="Layer_2">
	<g>
		<g>
			<path class="st0" d="M256,43.5C138.64,43.5,43.5,138.64,43.5,256c0,117.36,95.14,212.5,212.5,212.5S468.5,373.36,468.5,256
				C468.5,138.64,373.36,43.5,256,43.5z M357.13,167.18l-58.16,127.2c-0.93,2.03-2.56,3.66-4.59,4.59l-127.2,58.16
				c-7.83,3.58-15.89-4.49-12.32-12.32l58.16-127.2c0.93-2.03,2.56-3.66,4.59-4.59l127.2-58.16
				C352.64,151.29,360.71,159.36,357.13,167.18z"/>
		</g>
		<g>
			<path class="st0" d="M271.69,252.87c-0.11-0.51-0.24-1.02-0.39-1.52c-0.15-0.49-0.33-0.99-0.53-1.47
				c-0.2-0.48-0.42-0.96-0.66-1.42c-0.25-0.46-0.52-0.91-0.81-1.34c-0.29-0.44-0.6-0.86-0.93-1.27c-0.33-0.4-0.69-0.79-1.06-1.16
				s-0.76-0.73-1.16-1.06c-0.41-0.33-0.83-0.64-1.27-0.93c-0.43-0.29-0.88-0.56-1.34-0.81c-0.46-0.24-0.94-0.47-1.42-0.66
				c-0.48-0.2-0.98-0.38-1.47-0.53c-0.5-0.16-1.01-0.29-1.52-0.39c-0.52-0.1-1.04-0.18-1.56-0.23c-1.04-0.11-2.1-0.11-3.14,0
				c-0.52,0.05-1.04,0.13-1.56,0.23c-0.51,0.1-1.02,0.23-1.52,0.39c-0.49,0.15-0.99,0.33-1.47,0.53c-0.48,0.19-0.96,0.42-1.42,0.66
				c-0.46,0.25-0.91,0.52-1.34,0.81c-0.44,0.29-0.86,0.6-1.27,0.93c-0.4,0.33-0.8,0.69-1.16,1.06c-0.37,0.37-0.73,0.76-1.06,1.16
				c-0.33,0.41-0.65,0.83-0.93,1.27c-0.29,0.43-0.56,0.88-0.81,1.34c-0.24,0.46-0.47,0.94-0.66,1.42c-0.2,0.48-0.38,0.98-0.53,1.47
				c-0.16,0.5-0.29,1.01-0.39,1.52c-0.1,0.52-0.18,1.04-0.23,1.56c-0.05,0.52-0.08,1.05-0.08,1.57c0,0.52,0.03,1.05,0.08,1.57
				c0.05,0.52,0.13,1.04,0.23,1.56c0.1,0.51,0.23,1.02,0.39,1.52c0.15,0.49,0.33,0.99,0.53,1.47c0.19,0.48,0.42,0.96,0.66,1.42
				c0.25,0.46,0.52,0.91,0.81,1.34c0.29,0.44,0.6,0.86,0.93,1.27c0.33,0.4,0.69,0.79,1.06,1.16s0.76,0.73,1.16,1.06
				c0.41,0.33,0.83,0.64,1.27,0.93c0.43,0.29,0.88,0.56,1.34,0.81c0.46,0.24,0.94,0.46,1.42,0.66c0.48,0.2,0.98,0.38,1.47,0.53
				c0.5,0.15,1.01,0.28,1.52,0.39c0.52,0.1,1.04,0.18,1.56,0.23c0.52,0.05,1.05,0.08,1.57,0.08c0.52,0,1.05-0.03,1.57-0.08
				c0.52-0.05,1.04-0.13,1.56-0.23c0.51-0.11,1.02-0.24,1.52-0.39c0.49-0.15,0.99-0.33,1.47-0.53c0.48-0.2,0.96-0.42,1.41-0.66
				c0.47-0.25,0.92-0.52,1.35-0.81c0.44-0.29,0.86-0.6,1.26-0.93c0.41-0.33,0.8-0.69,1.17-1.06s0.73-0.76,1.06-1.16
				c0.33-0.41,0.64-0.83,0.93-1.27c0.29-0.43,0.56-0.88,0.8-1.34c0.25-0.46,0.47-0.94,0.67-1.42c0.2-0.48,0.38-0.98,0.53-1.47
				c0.15-0.5,0.28-1.01,0.39-1.52c0.1-0.52,0.18-1.04,0.23-1.56c0.05-0.52,0.08-1.05,0.08-1.57c0-0.52-0.03-1.05-0.08-1.57
				C271.87,253.91,271.79,253.39,271.69,252.87z"/>
		</g>
	</g>
</g>
</svg>
